<?xml version="1.0" encoding="utf-8"?>
<!-- Generator: Adobe Illustrator 16.0.0, SVG Export Plug-In . SVG Version: 6.00 Build 0)  -->
<!DOCTYPE svg PUBLIC "-//W3C//DTD SVG 1.1//EN" "http://www.w3.org/Graphics/SVG/1.1/DTD/svg11.dtd">
<svg version="1.1" id="Layer_1" xmlns="http://www.w3.org/2000/svg" xmlns:xlink="http://www.w3.org/1999/xlink" x="0px" y="0px"
	 width="243.78px" height="94.78px" viewBox="0 0 243.78 94.78" enable-background="new 0 0 243.78 94.78" xml:space="preserve">
<g>
	<g>
		<path fill="#FFFFFF" d="M142.373,57.697c-0.365,0-0.735-0.093-1.076-0.286c-1.046-0.596-1.412-1.927-0.816-2.973l30.352-53.338
			c0.387-0.678,1.107-1.099,1.889-1.101c0.002,0,0.004,0,0.006,0c0.779,0,1.499,0.415,1.889,1.089l17.149,29.703l17.149-29.703
			C209.303,0.415,210.022,0,210.801,0c0.779,0,1.499,0.415,1.889,1.089l30.795,53.338c0.391,0.675,0.391,1.505,0,2.18
			c-0.389,0.675-1.108,1.09-1.887,1.09h-30.797c-1.203,0-2.18-0.976-2.18-2.18s0.977-2.18,2.18-2.18h27.021L210.801,6.538
			l-17.148,29.705c-0.389,0.675-1.109,1.09-1.888,1.09s-1.499-0.415-1.888-1.09L172.74,6.562L144.27,56.595
			C143.867,57.301,143.131,57.697,142.373,57.697z"/>
	</g>
	<path fill="#FFFFFF" d="M86.776,54.431L56.138,1.093C55.75,0.417,55.03,0.001,54.25,0c-0.001,0-0.002,0-0.003,0
		c-0.778,0-1.498,0.415-1.887,1.089L0.292,91.302c-0.602,1.043-0.245,2.376,0.798,2.978c0.343,0.198,0.718,0.293,1.088,0.293
		c0.753,0,1.486-0.392,1.89-1.091l20.662-35.785h29.518c1.204,0,2.18-0.976,2.18-2.18s-0.976-2.18-2.18-2.18H27.247L54.243,6.546
		l28.753,50.057c0.403,0.701,1.137,1.095,1.892,1.095c0.368,0,0.742-0.094,1.084-0.29C87.016,56.808,87.375,55.475,86.776,54.431z"
		/>
	<g>
		<path fill="#FFFFFF" d="M114.09,57.696c-15.948,0-28.876-12.928-28.876-28.818V2.179c0-1.203,0.976-2.179,2.18-2.179
			s2.18,0.976,2.18,2.179v26.699c0,13.486,10.973,24.459,24.46,24.459c13.545,0,24.518-10.973,24.518-24.459V2.179
			c0-1.203,0.977-2.179,2.18-2.179c1.205,0,2.18,0.976,2.18,2.179v26.699C142.91,44.769,129.982,57.696,114.09,57.696z"/>
	</g>
	<g>
		<g>
			<path fill="#FFFFFF" d="M45.027,89.698H32.502l-1.793,3.437c-0.598,1.105-1.345,1.644-2.271,1.644
				c-1.106,0-2.003-0.867-2.003-1.943c0-0.387,0.149-0.896,0.478-1.494l8.221-15.542c1.106-2.032,2.182-2.541,3.646-2.541
				c1.435,0,2.451,0.509,3.617,2.541l8.28,15.542c0.299,0.568,0.449,1.047,0.449,1.494c0,1.076-0.867,1.943-1.973,1.943
				c-0.986,0-1.674-0.448-2.302-1.644L45.027,89.698z M38.779,77.771l-4.215,8.041h8.43L38.779,77.771z"/>
		</g>
		<g>
			<path fill="#FFFFFF" d="M57.37,84.02c0,4.542,2.361,7.022,7.024,7.022c4.663,0,7.024-2.48,7.024-7.022v-8.669
				c0-1.285,0.807-2.093,2.092-2.093c1.286,0,2.093,0.808,2.093,2.093v8.669c0,3.376-1.017,6.036-3.019,7.919
				c-2.003,1.884-4.753,2.84-8.19,2.84c-3.438,0-6.188-0.956-8.19-2.84c-2.003-1.883-3.019-4.543-3.019-7.919v-8.669
				c0-1.285,0.807-2.093,2.092-2.093s2.093,0.808,2.093,2.093V84.02z"/>
		</g>
		<g>
			<path fill="#FFFFFF" d="M103.699,92.687c0,1.285-0.807,2.092-2.092,2.092c-1.285,0-2.091-0.807-2.091-2.092V80.133l-5.501,6.128
				c-1.046,1.195-2.57,1.195-3.646,0l-5.5-6.128v12.554c0,1.285-0.807,2.092-2.092,2.092c-1.285,0-2.092-0.807-2.092-2.092V75.649
				c0-1.704,0.927-2.392,2.092-2.392c1.166,0,1.614,0.389,2.69,1.495l6.726,7.532l6.726-7.532c0.359-0.389,0.628-0.688,0.808-0.837
				c0.389-0.329,1.046-0.658,1.882-0.658c1.166,0,2.092,0.688,2.092,2.392V92.687z"/>
		</g>
		<g>
			<path fill="#FFFFFF" d="M108.871,83.81c0-1.674,1.166-2.988,2.989-2.988c1.823,0,2.99,1.314,2.99,2.988v0.09
				c0,1.674-1.167,2.989-2.99,2.989c-1.824,0-2.989-1.315-2.989-2.989V83.81z"/>
		</g>
		<g>
			<path fill="#FFFFFF" d="M118.877,90.474c0-1.195,0.957-1.912,1.883-1.912c0.538,0,1.076,0.209,1.615,0.598
				c0.748,0.539,1.764,0.957,3.049,1.285c1.314,0.299,2.631,0.449,3.945,0.449c4.693,0,7.055-1.047,7.055-3.109
				c0-1.104-0.717-1.553-1.764-1.882c-0.598-0.209-1.764-0.269-2.51-0.299l-2.871-0.09c-0.269-0.029-0.627-0.029-1.135-0.06
				c-0.928-0.03-1.645-0.09-2.123-0.119c-0.448-0.03-1.076-0.12-1.854-0.21s-1.375-0.209-1.793-0.358
				c-0.808-0.27-2.063-0.867-2.571-1.614c-0.508-0.747-0.957-1.913-0.957-3.348c0-4.395,3.976-6.547,10.792-6.547
				c3.797,0,6.756,0.837,8.818,2.512c0.688,0.567,1.046,1.165,1.046,1.853c0,1.196-0.866,1.823-1.823,1.823
				c-0.627,0-1.226-0.179-1.733-0.567c-1.585-1.166-3.677-1.733-6.308-1.733c-4.395,0-6.697,0.986-6.697,2.689
				c0,0.808,0.389,1.256,1.316,1.465c0.479,0.09,0.927,0.18,1.346,0.21c0.418,0.029,1.016,0.029,1.793,0.06
				c0.777,0,1.404,0.029,1.883,0.06c0.209,0.03,0.509,0.03,0.896,0.06l2.094,0.149c0.508,0.03,1.166,0.12,2.002,0.27
				c0.867,0.119,1.525,0.269,1.974,0.448c0.956,0.329,2.392,0.986,2.989,1.823c0.628,0.837,1.166,2.122,1.166,3.705
				c0,4.395-4.066,6.695-11.031,6.695c-1.793,0-3.587-0.209-5.351-0.628c-1.764-0.448-3.139-1.076-4.155-1.882
				C119.206,91.761,118.877,91.161,118.877,90.474z"/>
		</g>
		<g>
			<path fill="#FFFFFF" d="M156.025,77.443v15.243c0,1.285-0.809,2.092-2.094,2.092s-2.092-0.807-2.092-2.092V77.443h-7.025
				c-1.315,0-2.093-0.658-2.093-1.943s0.777-1.943,2.093-1.943h18.234c1.316,0,2.092,0.658,2.092,1.943s-0.775,1.943-2.092,1.943
				H156.025z"/>
		</g>
		<g>
			<path fill="#FFFFFF" d="M166.579,84.02c0-3.318,1.136-5.949,3.407-7.862c2.271-1.942,5.172-2.899,8.698-2.899
				c3.527,0,6.427,0.957,8.699,2.899c2.271,1.913,3.407,4.544,3.407,7.862c0,3.317-1.137,5.946-3.407,7.89
				c-2.272,1.913-5.172,2.869-8.699,2.869c-3.526,0-6.427-0.956-8.698-2.869C167.715,89.966,166.579,87.337,166.579,84.02z
				 M170.854,84.02c0,2.182,0.717,3.884,2.182,5.14s3.349,1.883,5.649,1.883c2.302,0,4.155-0.627,5.62-1.883s2.212-2.958,2.212-5.14
				c0-2.183-0.747-3.887-2.212-5.142c-1.465-1.256-3.318-1.883-5.62-1.883c-2.301,0-4.185,0.627-5.649,1.883
				C171.57,80.133,170.854,81.837,170.854,84.02z"/>
		</g>
		<g>
			<path fill="#FFFFFF" d="M195.129,75.351c0-1.285,0.807-2.093,2.092-2.093c1.076,0,1.703,0.419,2.69,1.495l12.256,13.15V75.351
				c0-1.285,0.808-2.093,2.093-2.093s2.093,0.808,2.093,2.093v17.336c0,1.285-0.808,2.092-2.093,2.092
				c-1.046,0-1.733-0.448-2.69-1.494l-12.257-13.151v12.554c0,1.285-0.807,2.092-2.092,2.092s-2.092-0.807-2.092-2.092V75.351z"/>
		</g>
		<g>
			<path fill="#FFFFFF" d="M225.9,85.812v3.886c0,0.598-0.029,0.896,0.598,0.896h12.853c1.315,0,2.093,0.656,2.093,1.941
				c0,1.286-0.777,1.943-2.093,1.943H225.9c-1.645,0-2.779-0.239-3.348-0.688c-0.568-0.479-0.838-1.584-0.838-3.348V77.593
				c0-1.764,0.27-2.87,0.838-3.318c0.568-0.479,1.703-0.718,3.348-0.718h13.45c1.315,0,2.093,0.658,2.093,1.943
				s-0.777,1.943-2.093,1.943h-12.853c-0.568,0-0.598,0.179-0.598,0.896v3.587h10.761c1.314,0,2.092,0.657,2.092,1.943
				c0,1.285-0.777,1.942-2.092,1.942H225.9z"/>
		</g>
	</g>
</g>
</svg>
